<svg width="192" height="192" viewBox="0 0 192 192" fill="none" xmlns="http://www.w3.org/2000/svg">
  <!-- Background -->
  <rect width="192" height="192" rx="32" fill="#2563EB"/>
  
  <!-- Car Icon -->
  <g transform="translate(48, 60)">
    <!-- Car Body -->
    <path d="M12 48L18 28H78L84 48M12 48V64C12 66.2091 13.7909 68 16 68H20C22.2091 68 24 66.2091 24 64V60H72V64C72 66.2091 73.7909 68 76 68H80C82.2091 68 84 66.2091 84 64V48M12 48H84M84 48V28H12V48" 
          stroke="white" 
          stroke-width="6" 
          stroke-linecap="round" 
          stroke-linejoin="round"
          fill="none"/>
    
    <!-- Wheels -->
    <circle cx="24" cy="60" r="8" fill="white"/>
    <circle cx="72" cy="60" r="8" fill="white"/>
    
    <!-- Windows -->
    <path d="M24 28L30 16H66L72 28" 
          stroke="white" 
          stroke-width="4" 
          stroke-linecap="round" 
          stroke-linejoin="round"
          fill="none"/>
  </g>
  
  <!-- Wrench Icon (smaller, bottom right) -->
  <g transform="translate(120, 120)">
    <path d="M14.7 6.3a1 1 0 0 0 0 1.4l1.6 1.6a1 1 0 0 0 1.4 0l3.77-3.77a6 6 0 0 1-7.94 7.94l-6.91 6.91a2.12 2.12 0 0 1-3-3l6.91-6.91a6 6 0 0 1 7.94-7.94l-3.76 3.76z" 
          fill="white" 
          transform="scale(1.5)"/>
  </g>
</svg>
