<svg width="1200" height="630" viewBox="0 0 1200 630" xmlns="http://www.w3.org/2000/svg">
  <!-- Background -->
  <rect width="1200" height="630" fill="#2563eb"/>
  
  <!-- Gradient overlay -->
  <defs>
    <linearGradient id="grad" x1="0%" y1="0%" x2="100%" y2="100%">
      <stop offset="0%" style="stop-color:#2563eb;stop-opacity:1" />
      <stop offset="100%" style="stop-color:#1e40af;stop-opacity:1" />
    </linearGradient>
  </defs>
  <rect width="1200" height="630" fill="url(#grad)"/>
  
  <!-- Car Icon -->
  <g transform="translate(500, 200)">
    <path d="M50 80 L20 80 L10 60 L10 30 L20 20 L80 20 L90 30 L90 60 L80 80 L50 80 M25 70 A8 8 0 1 1 25 70.01 M75 70 A8 8 0 1 1 75 70.01 M15 50 L85 50 M20 40 L35 40 M65 40 L80 40" 
          stroke="white" 
          stroke-width="6" 
          fill="none" 
          stroke-linecap="round" 
          stroke-linejoin="round"
          transform="scale(2)"/>
  </g>
  
  <!-- Title -->
  <text x="600" y="400" font-family="Arial, sans-serif" font-size="80" font-weight="bold" fill="white" text-anchor="middle">
    CarCare
  </text>
  
  <!-- Subtitle -->
  <text x="600" y="460" font-family="Arial, sans-serif" font-size="36" fill="rgba(255,255,255,0.9)" text-anchor="middle">
    Sistema de Controle de Manutenção Veicular
  </text>
  
  <!-- Bottom text -->
  <text x="600" y="550" font-family="Arial, sans-serif" font-size="28" fill="rgba(255,255,255,0.7)" text-anchor="middle">
    Controle completo de veículos, manutenções e IPVA
  </text>
</svg>
